<svg aria-hidden="true" style="position: absolute; width: 0; height: 0; overflow: hidden;" version="1.1" xmlns="http://www.w3.org/2000/svg" xmlns:xlink="http://www.w3.org/1999/xlink">
<defs>
<symbol id="menu-icon" viewBox="0 0 46 32">
<path fill="none" stroke-linejoin="miter" stroke-linecap="round" stroke-miterlimit="4" stroke-width="3.4286" d="M8.671 5.073h35.329M8.671 24.467h35.329M19.602 14.77h24.398"></path>
</symbol>
<symbol id="close-icon" viewBox="0 0 24 24">
<path d="M5.293 6.707l5.293 5.293-5.293 5.293c-0.391 0.391-0.391 1.024 0 1.414s1.024 0.391 1.414 0l5.293-5.293 5.293 5.293c0.391 0.391 1.024 0.391 1.414 0s0.391-1.024 0-1.414l-5.293-5.293 5.293-5.293c0.391-0.391 0.391-1.024 0-1.414s-1.024-0.391-1.414 0l-5.293 5.293-5.293-5.293c-0.391-0.391-1.024-0.391-1.414 0s-0.391 1.024 0 1.414z"></path>
</symbol>
<symbol id="around-the-world-icon" viewBox="0 0 44.863 44.864">
<path d="M19.024 20.959c.251-.392.087-1.673.087-1.673C9.67 16.034 2.607 11.957 3.007 10.3c.197-.819.47-1.178.659-1.241.423-.138 1.378.363 2.548 1.134l1.945-2.284c-.92-.565-3.188-2.431-5.416-1.705C1.833 6.498.636 7.326.09 9.598c-1.28 5.32 11.41 10.122 18.217 12.484l.717-1.123z"/><path d="M41.112 10.647a21.89 21.89 0 0 0-.98-1.281c-3.752-4.501-9.396-7.372-15.701-7.372l-.03.001-.019-.001c-.023 0-.046.003-.07.003-6.256.036-11.852 2.898-15.58 7.37-.344.413-.67.841-.98 1.28a21.39 21.39 0 0 0-.673 1.029c.427.27.91.557 1.449.859.186-.297.372-.595.574-.881 1.271.849 2.739 1.59 4.364 2.202-.09.325-.158.667-.238 1 .497.217 1.02.435 1.553.652.084-.375.16-.754.256-1.117 2.581.791 5.481 1.266 8.557 1.34v2.131l.104.066.146.876.226 1.342 1.2.311v-4.726a34.477 34.477 0 0 0 1.756-.099l.439-1.244.169-.48c-.774.074-1.56.128-2.364.147V3.745c3.404.526 6.335 4.051 8.001 9.097-.806.239-1.658.433-2.529.605a3.888 3.888 0 0 1 1.537 1.356c.491-.122.985-.242 1.459-.385.626 2.384.989 5.035 1.005 7.841h-2.599l-.083.508 2.49 1.024c.777.321 1.357.804 1.745 1.392.033-.414.069-.826.088-1.248h4.024c-.071.52-.138 1.043-.23 1.543.255-.131.478-.387.594-.869.063-.26.07-.477.057-.674h2.299a18.62 18.62 0 0 1-3.364 9.273c-1.293-.863-2.791-1.619-4.453-2.236.091-.332.166-.677.246-1.018-.532.417-1.199.65-1.953.65-.33 0-.608-.043-.795-.069l-.057-.011c-.2-.014-.481-.037-2.181-.619.2-.27.438-.623.699-1.035v-.838c.79.271 1.463.49 1.621.501.437.03 1.559.414 1.881-.921.323-1.336-.516-1.777-.982-1.971-.265-.107-1.495-.613-2.52-1.035v-1.697l-.584 1.457-.873-.359s1.266-6.982.92-7.866-1.383-1.085-1.383-1.085l-2.758 7.812-2.998-.775-1.283-.333-.439-2.623-1.399-.895c-.001 0 .082 2.162-.124 3.328-.039.22-.089.405-.151.532-.023.049-.065.108-.099.162a6.497 6.497 0 0 1-.629.824l-.004.004a14.432 14.432 0 0 1-.412.455c-.119.125-.236.247-.349.361-.381.389-.686.676-.686.676l1.223.904 2.036-1.553h.001l.461-.353.731.353 1.853.891.943.455.211.102-3.074 7.664s1.008.905 1.766.321c.759-.584 3.992-6.446 3.992-6.446s.565.207 1.306.475l-.172.429c.1-.003.195-.015.296-.017v1.758l-.221-.078c-.108-.016-.222-.025-.329-.041-.33.583-.632 1.105-.904 1.568 1.816.203 3.548.537 5.136 1.006-1.667 5.048-4.602 8.57-8.006 9.097v-6.086a2.915 2.915 0 0 1-1.676.532v5.566c-3.439-.472-6.41-4.002-8.094-9.082 1.715-.517 3.599-.879 5.584-1.076l.696-1.737c-2.403.185-4.683.604-6.751 1.239a31.288 31.288 0 0 1-.971-6.539h1.73l.44-.412a98.172 98.172 0 0 1-3.875-1.414c-.001.05-.005.099-.005.148H5.674c.009-1.039.109-2.056.283-3.048-.539-.29-1.052-.58-1.536-.872a20.368 20.368 0 0 0-.429 4.093c0 4.387 1.395 8.451 3.756 11.783.311.439.637.868.98 1.28 3.729 4.472 9.324 7.334 15.58 7.37.024 0 .047.003.07.003l.019-.001.03.001c6.305 0 11.949-2.871 15.701-7.371.344-.413.67-.842.979-1.28a20.323 20.323 0 0 0 3.756-11.785 20.292 20.292 0 0 0-3.751-11.784zm-27.171 1.645c-1.441-.538-2.738-1.186-3.856-1.919a18.814 18.814 0 0 1 8.372-5.72c-1.878 1.812-3.439 4.461-4.516 7.639zm9.651 1.764c-2.918-.071-5.665-.511-8.09-1.239 1.684-5.08 4.65-8.613 8.09-9.085v10.324zm-17.855 9.88h6.643a32.16 32.16 0 0 0 1.085 7.072c-1.625.61-3.094 1.354-4.363 2.201a18.625 18.625 0 0 1-3.365-9.273zm4.353 10.552c1.117-.731 2.412-1.378 3.85-1.916 1.076 3.18 2.639 5.827 4.518 7.638a18.811 18.811 0 0 1-8.368-5.722zm20.164 5.774c1.908-1.82 3.494-4.498 4.58-7.721 1.473.544 2.797 1.201 3.937 1.947a18.813 18.813 0 0 1-8.517 5.774zm0-35.66a18.82 18.82 0 0 1 8.52 5.772c-.979.641-2.102 1.211-3.329 1.706-.057-.016-.097-.025-.097-.025l-.025.074c-.163.065-.322.133-.49.195-1.087-3.222-2.671-5.902-4.579-7.722zm6.162 17.658c-.014-2.987-.413-5.818-1.108-8.37 1.659-.617 3.158-1.371 4.451-2.234a18.645 18.645 0 0 1 3.426 10.604h-6.769z"></path>
</symbol>
<symbol id="conversation-icon" viewBox="0 0 512 512">
<path d="M211.313 21.094c-51.776 0-98.754 12.252-133.5 32.718C43.066 74.28 19.874 103.78 19.874 137.69c0 33.54 22.692 62.81 56.813 83.25L48.156 327.094l96.97-79.844c20.65 4.58 42.924 7.063 66.186 7.063 51.776 0 98.786-12.252 133.532-32.72 34.746-20.466 57.937-49.997 57.937-83.905s-23.19-63.41-57.936-83.875c-34.746-20.467-81.756-32.72-133.53-32.72zm0 18.687c48.8 0 92.866 11.77 124.03 30.126 31.165 18.357 48.75 42.447 48.75 67.78 0 25.338-17.585 49.457-48.75 67.814-31.164 18.357-75.23 30.125-124.03 30.125S118.445 223.857 87.28 205.5c-31.163-18.357-48.718-42.476-48.718-67.813 0-25.336 17.555-49.424 48.72-67.78C118.445 51.55 162.51 39.78 211.31 39.78zM96.53 89.938v18.688h93.126V89.937H96.53zm111.814 0v18.688h28.094V89.937h-28.094zm46.78 0v18.688h71.97V89.937h-71.97zM96.532 129.844v18.72h29.657v-18.72H96.53zm48.345 0v18.72h65.938v-18.72h-65.938zm84.656 0v18.72h38.095v-18.72H229.53zm56.782 0v18.72h40.782v-18.72h-40.78zM96.532 166.78v18.69h70.874v-18.69H96.53zm89.562 0v18.69h57.03v-18.69h-57.03zm75.72 0-.002 18.69h65.282v-18.69h-65.28zm92.342 90.25c-74.88 0-135.594 41.762-135.594 93.283 0 51.52 60.716 93.28 135.594 93.28 18.23 0 35.623-2.48 51.5-6.968l68.53 51.156-24.873-71.03c24.947-16.918 40.437-40.432 40.437-66.438 0-51.518-60.714-93.28-135.594-93.28zm-70.344 42.345h32.907v18.688H283.81v-18.688zm51.594 0h90.344v18.688h-90.344v-18.688zm-78.97 41.75h78.314v18.688h-78.313v-18.688zm97.002 0h20.968v18.688h-20.97l.002-18.688zm39.656 0h51v18.688h-51v-18.688zm-109.28 39h79.06v18.688h-79.062v-18.688zm97.748 0h44.188v18.688h-44.188v-18.688z"></path>
</symbol>
</defs>
</svg>
