<svg aria-hidden="true" style="position: absolute; width: 0; height: 0; overflow: hidden;" version="1.1" xmlns="http://www.w3.org/2000/svg" xmlns:xlink="http://www.w3.org/1999/xlink">
<defs>
<symbol id="icon-travel" viewBox="0 0 32 32">
<path d="M8.241 7.241c-0.431 0-0.647-0.306-0.803-0.531-0.159-0.228-0.241-0.319-0.397-0.319s-0.234 0.094-0.397 0.319c-0.159 0.225-0.375 0.531-0.803 0.531-0.431 0-0.647-0.306-0.803-0.531-0.159-0.228-0.241-0.319-0.397-0.319s-0.234 0.094-0.397 0.319c-0.159 0.225-0.375 0.531-0.803 0.531s-0.647-0.306-0.803-0.531c-0.159-0.228-0.241-0.319-0.397-0.319-0.138 0-0.25-0.112-0.25-0.25s0.112-0.25 0.25-0.25c0.431 0 0.647 0.306 0.803 0.531 0.159 0.228 0.241 0.319 0.397 0.319s0.234-0.094 0.397-0.319c0.159-0.225 0.375-0.531 0.803-0.531s0.647 0.306 0.803 0.531c0.159 0.228 0.241 0.319 0.397 0.319s0.234-0.094 0.397-0.319c0.159-0.225 0.375-0.531 0.803-0.531s0.647 0.306 0.803 0.531c0.159 0.228 0.241 0.319 0.397 0.319 0.137 0 0.25 0.112 0.25 0.25s-0.113 0.25-0.25 0.25zM8.241 8.803c-0.431 0-0.647-0.306-0.803-0.531-0.159-0.228-0.241-0.319-0.397-0.319s-0.234 0.094-0.397 0.319c-0.159 0.225-0.375 0.531-0.803 0.531-0.431 0-0.647-0.306-0.803-0.531-0.159-0.228-0.241-0.319-0.397-0.319s-0.234 0.094-0.397 0.319c-0.159 0.225-0.375 0.531-0.803 0.531s-0.647-0.306-0.803-0.531c-0.159-0.228-0.241-0.319-0.397-0.319-0.138 0-0.25-0.112-0.25-0.25s0.112-0.25 0.25-0.25c0.431 0 0.647 0.306 0.803 0.531 0.159 0.228 0.241 0.319 0.397 0.319s0.234-0.094 0.397-0.319c0.159-0.225 0.375-0.531 0.803-0.531s0.647 0.306 0.803 0.531c0.159 0.228 0.241 0.319 0.397 0.319s0.234-0.094 0.397-0.319c0.159-0.225 0.375-0.531 0.803-0.531s0.647 0.306 0.803 0.531c0.159 0.228 0.241 0.319 0.397 0.319 0.137 0 0.25 0.113 0.25 0.25s-0.113 0.25-0.25 0.25zM29.741 21.272c-0.431 0-0.647-0.306-0.803-0.531-0.159-0.228-0.241-0.319-0.397-0.319s-0.234 0.094-0.397 0.319c-0.159 0.225-0.375 0.531-0.803 0.531-0.431 0-0.647-0.306-0.803-0.531-0.159-0.228-0.241-0.319-0.397-0.319s-0.234 0.094-0.397 0.319c-0.159 0.225-0.375 0.531-0.803 0.531s-0.647-0.306-0.803-0.531c-0.159-0.228-0.241-0.319-0.397-0.319-0.137 0-0.25-0.113-0.25-0.25s0.113-0.25 0.25-0.25c0.431 0 0.647 0.306 0.803 0.531 0.159 0.228 0.241 0.319 0.397 0.319s0.234-0.094 0.397-0.319c0.159-0.225 0.375-0.531 0.803-0.531s0.647 0.306 0.803 0.531c0.159 0.228 0.241 0.319 0.397 0.319s0.234-0.094 0.397-0.319c0.159-0.225 0.375-0.531 0.803-0.531s0.647 0.306 0.803 0.531c0.159 0.228 0.241 0.319 0.397 0.319 0.137 0 0.25 0.113 0.25 0.25s-0.113 0.25-0.25 0.25zM29.741 22.834c-0.431 0-0.647-0.306-0.803-0.531-0.159-0.228-0.241-0.319-0.397-0.319s-0.234 0.094-0.397 0.319c-0.159 0.225-0.375 0.531-0.803 0.531-0.431 0-0.647-0.306-0.803-0.531-0.159-0.228-0.241-0.319-0.397-0.319s-0.234 0.094-0.397 0.319c-0.159 0.225-0.375 0.531-0.803 0.531s-0.647-0.306-0.803-0.531c-0.159-0.228-0.241-0.319-0.397-0.319-0.137 0-0.25-0.113-0.25-0.25s0.113-0.25 0.25-0.25c0.431 0 0.647 0.306 0.803 0.531 0.159 0.228 0.241 0.319 0.397 0.319s0.234-0.094 0.397-0.319c0.159-0.225 0.375-0.531 0.803-0.531s0.647 0.306 0.803 0.531c0.159 0.228 0.241 0.319 0.397 0.319s0.234-0.094 0.397-0.319c0.159-0.225 0.375-0.531 0.803-0.531s0.647 0.306 0.803 0.531c0.159 0.228 0.241 0.319 0.397 0.319 0.137 0 0.25 0.113 0.25 0.25s-0.113 0.25-0.25 0.25z"></path>
<path d="M9.994 3.253c0 0.552 0.448 1 1 1s1-0.448 1-1v0c0-0.552-0.448-1-1-1s-1 0.448-1 1v0z"></path>
<path d="M10.994 4.503c-0.691 0-1.25-0.559-1.25-1.25s0.559-1.25 1.25-1.25 1.25 0.559 1.25 1.25-0.563 1.25-1.25 1.25zM10.994 2.503c-0.412 0-0.75 0.337-0.75 0.75s0.338 0.75 0.75 0.75 0.75-0.337 0.75-0.75-0.338-0.75-0.75-0.75z"></path>
<path d="M16.928 4.066h1.5v24.688h-1.5z"></path>
<path d="M25.491 18.563h-12.75c-0.275 0-0.5-0.225-0.5-0.5v-2c0-0.275 0.225-0.5 0.5-0.5h12.75l2 1.5-2 1.5z"></path>
<path d="M9.866 13.719h12.75c0.275 0 0.5-0.225 0.5-0.5v-2c0-0.275-0.225-0.5-0.5-0.5h-12.75l-2 1.5 2 1.5z"></path>
<path d="M25.491 8.875h-12.75c-0.275 0-0.5-0.225-0.5-0.5v-2c0-0.275 0.225-0.5 0.5-0.5h12.75l2 1.5-2 1.5z"></path>
<path d="M9.491 25.316c0 1.381 1.119 2.5 2.5 2.5s2.5-1.119 2.5-2.5v0c0-1.381-1.119-2.5-2.5-2.5s-2.5 1.119-2.5 2.5v0z"></path>
<path d="M11.709 28.784h-6.125v-1.813c0-1.684 1.378-3.063 3.063-3.063s3.063 1.378 3.063 3.063v1.813z"></path>
<path d="M15.584 28.784h-5.031v-1.047c0-1.384 1.131-2.516 2.516-2.516s2.516 1.131 2.516 2.516v1.047z"></path>
<path d="M28.897 28.534h-10.219v-9.722h6.813c0.053 0 0.106-0.019 0.15-0.050l2-1.5c0.063-0.047 0.1-0.122 0.1-0.2s-0.038-0.153-0.1-0.2l-2-1.5c-0.044-0.031-0.097-0.050-0.15-0.050h-6.813v-1.344h3.938c0.413 0 0.75-0.338 0.75-0.75v-2c0-0.412-0.337-0.75-0.75-0.75h-3.938v-1.344h6.813c0.053 0 0.106-0.019 0.15-0.050l2-1.5c0.063-0.047 0.1-0.122 0.1-0.2s-0.038-0.153-0.1-0.2l-2-1.5c-0.044-0.031-0.097-0.050-0.15-0.050h-6.813v-1.559c0-0.138-0.113-0.25-0.25-0.25h-1.5c-0.137 0-0.25 0.112-0.25 0.25v1.559h-3.938c-0.412 0-0.75 0.338-0.75 0.75v2c0 0.412 0.338 0.75 0.75 0.75h3.938v1.344h-6.813c-0.053 0-0.106 0.019-0.15 0.050l-2 1.5c-0.063 0.047-0.1 0.122-0.1 0.2s0.037 0.153 0.1 0.2l2 1.5c0.044 0.031 0.097 0.050 0.15 0.050h6.813v1.344h-3.938c-0.412 0-0.75 0.338-0.75 0.75v2c0 0.413 0.338 0.75 0.75 0.75h3.938v9.722h-0.844v-0.797c0-0.9-0.434-1.703-1.103-2.209 0.006-0.072 0.009-0.141 0.009-0.212 0-1.516-1.234-2.75-2.75-2.75-0.969 0-1.819 0.503-2.309 1.259-0.325-0.106-0.672-0.166-1.034-0.166-1.825 0-3.313 1.488-3.313 3.313v1.563h-2.188c-0.138 0-0.25 0.113-0.25 0.25s0.112 0.25 0.25 0.25h25.75c0.137 0 0.25-0.113 0.25-0.25s-0.113-0.25-0.25-0.25zM17.178 28.503v-9.691h1v9.691h-1zM17.178 4.316h1v1.309h-1v-1.309zM12.741 8.625c-0.137 0-0.25-0.113-0.25-0.25v-2c0-0.138 0.113-0.25 0.25-0.25h12.666l1.666 1.25-1.666 1.25h-12.666zM18.178 9.125v1.344h-1v-1.344h1zM9.95 13.469l-1.669-1.25 1.666-1.25h12.666c0.137 0 0.25 0.113 0.25 0.25v2c0 0.137-0.113 0.25-0.25 0.25h-12.662zM18.178 13.969v1.344h-1v-1.344h1zM12.741 18.313c-0.137 0-0.25-0.113-0.25-0.25v-2c0-0.137 0.113-0.25 0.25-0.25h12.666l1.666 1.25-1.666 1.25h-12.666zM11.991 23.066c1.213 0 2.203 0.966 2.247 2.166-0.356-0.166-0.753-0.259-1.169-0.259-0.553 0-1.066 0.163-1.5 0.444-0.319-0.597-0.816-1.084-1.419-1.394 0.409-0.578 1.081-0.956 1.841-0.956zM5.834 28.534v-1.563c0-1.55 1.263-2.813 2.813-2.813 0.278 0 0.547 0.041 0.8 0.116 0.162 0.047 0.316 0.109 0.466 0.184 0.544 0.275 0.988 0.722 1.259 1.269-0.344 0.325-0.603 0.738-0.744 1.2-0.056 0.181-0.094 0.372-0.109 0.566-0.006 0.081-0.009 0.163-0.009 0.244v0.797h-4.475zM10.803 28.534v-0.797c0-0.166 0.019-0.325 0.053-0.481 0.222-1.019 1.128-1.784 2.213-1.784 0.409 0 0.794 0.109 1.125 0.3 0.156 0.091 0.303 0.2 0.434 0.325 0.434 0.413 0.706 0.997 0.706 1.641v0.797h-4.531z"></path>
<path d="M9.447 24.275c-0.253-0.075-0.522-0.116-0.8-0.116-1.438 0-2.625 1.081-2.791 2.475 0.709-0.022 1.481-0.169 1.903-0.366 0.759-0.353 0.297-1.188 1.369-1.319 0.338-0.041 0.662-0.1 1-0.369-0.069-0.044-0.141-0.084-0.216-0.122-0.15-0.075-0.306-0.137-0.466-0.184zM11.991 23.066c-0.684 0-1.3 0.309-1.713 0.794-0.044 0.053-0.088 0.106-0.128 0.163 0.153 0.078 0.297 0.166 0.434 0.266 0.019-0.006 0.041-0.016 0.059-0.022 0.275-0.1 0.469-0.288 0.678-0.4 0.353-0.191 0.859 0.041 1.428 0.041 0.234 0 0.478-0.072 0.738-0.272-0.395-0.353-0.919-0.569-1.494-0.569-0.001 0-0.002 0-0.003 0h0z"></path>
</symbol>
<symbol id="icon-travel-around-the-world-world-svgrepo-com" viewBox="0 0 32 32">
<path d="M6.533 27.867c0.533 0 1.067-0.133 1.733-0.267 0.667-0.267 1.067-0.933 0.933-1.733-0.267-0.667-0.933-1.067-1.6-0.933-0.533 0.133-0.8 0.133-0.933 0.133s-0.133 0-0.133 0c-0.133-0.133-0.133-1.2 0.933-3.067 1.733 2.8 4.933 4.667 8.533 4.667 5.867 0 10.667-4.8 10.667-10.667 0-3.6-1.867-6.8-4.533-8.8 2-1.067 2.933-1.067 3.067-0.933 0 0 0.133 0.267-0.133 1.2-0.267 0.667 0.267 1.467 0.933 1.6 0.133 0 0.267 0 0.4 0 0.533 0 1.067-0.4 1.333-0.933 0.667-2.133 0-3.2-0.533-3.867-1.733-1.733-5.067-0.267-7.867 1.467-1.2-0.267-2.267-0.4-3.333-0.4-5.867 0-10.667 4.8-10.667 10.667 0 1.067 0.133 2.133 0.533 3.2-1.733 2.667-3.2 6-1.467 7.867 0.4 0.4 1.067 0.8 2.133 0.8zM16 8c4.4 0 8 3.6 8 8s-3.6 8-8 8-8-3.6-8-8 3.6-8 8-8z"></path>
<path d="M14.667 21.333c0 0.8 0.533 1.333 1.333 1.333s1.333-0.533 1.333-1.333v-0.8l1.333-1.333v0.8c0 0.8 0.533 1.333 1.333 1.333s1.333-0.533 1.333-1.333v-3.467l0.933-0.933c0.533-0.533 0.533-1.333 0-1.867s-1.333-0.533-1.867 0l-0.933 0.933h-3.467c-0.8 0-1.333 0.533-1.333 1.333s0.533 1.333 1.333 1.333h0.8l-1.333 1.333h-0.8c-0.8 0-1.333 0.533-1.333 1.333s0.533 1.333 1.333 1.333z"></path>
</symbol>
<symbol id="icon-close" viewBox="0 0 32 32">
<path d="M32 3.223l-3.223-3.223-12.777 12.777-12.777-12.777-3.223 3.223 12.777 12.777-12.777 12.777 3.223 3.223 12.777-12.777 12.777 12.777 3.223-3.223-12.777-12.777 12.777-12.777z"></path>
</symbol>
<symbol id="icon-chat" viewBox="0 0 36 32">
<path d="M34 28.161c0 1.422 0.813 2.653 2 3.256v0.498c-0.332 0.045-0.671 0.070-1.016 0.070-2.125 0-4.042-0.892-5.398-2.321-0.819 0.218-1.688 0.336-2.587 0.336-4.971 0-9-3.582-9-8s4.029-8 9-8c4.971 0 9 3.582 9 8 0 1.73-0.618 3.331-1.667 4.64-0.213 0.463-0.333 0.979-0.333 1.522zM7.209 6.912c-2.069 1.681-3.209 3.843-3.209 6.088 0 1.259 0.35 2.481 1.039 3.63 0.711 1.185 1.781 2.268 3.093 3.133 0.949 0.625 1.587 1.623 1.755 2.747 0.056 0.375 0.091 0.753 0.105 1.129 0.233-0.194 0.461-0.401 0.684-0.624 0.755-0.755 1.774-1.172 2.828-1.172 0.168 0 0.336 0.011 0.505 0.032 0.655 0.083 1.323 0.125 1.987 0.126v4c-0.848-0-1.68-0.054-2.492-0.158-3.437 3.437-7.539 4.053-11.505 4.144v-0.841c2.142-1.049 4-2.961 4-5.145 0-0.305-0.024-0.604-0.068-0.897-3.619-2.383-5.932-6.024-5.932-10.103 0-7.18 7.163-13 16-13 8.702 0 15.781 5.644 15.995 12.672-1.284-0.572-2.683-0.919-4.133-1.018-0.36-1.752-1.419-3.401-3.070-4.742-1.104-0.897-2.404-1.606-3.863-2.108-1.553-0.534-3.211-0.804-4.928-0.804s-3.375 0.271-4.928 0.804c-1.46 0.502-2.76 1.211-3.863 2.108z"></path>
</symbol>
<symbol id="icon-menu-open" viewBox="0 0 44 32">
<path d="M0 6h28v6h-28v-6zM0 14h28v6h-28v-6zM0 22h28v6h-28v-6z"></path>
<path d="M31 14l6 6 6-6z"></path>
</symbol>
<symbol id="icon-menu-close" viewBox="0 0 44 32">
<path d="M0 6h28v6h-28v-6zM0 14h28v6h-28v-6zM0 22h28v6h-28v-6z"></path>
<path d="M31 20l6-6 6 6z"></path>
</symbol>
</defs>
</svg>
